<svg width="140" height="41" viewBox="0 0 140 41" fill="none" xmlns="http://www.w3.org/2000/svg">
<path fill-rule="evenodd" clip-rule="evenodd" d="M59.4573 0.0292809C59.5263 0.0923568 59.4563 0.321993 59.2435 0.734943C59.07 1.072 58.6679 1.63574 58.3496 1.98759C58.0214 2.35028 57.4093 2.8608 56.9402 3.16435C56.4829 3.45903 55.7102 3.88578 55.2224 4.11147C54.7345 4.33717 54.0476 4.63678 53.6948 4.77673C53.3419 4.91569 52.4776 5.18672 51.7729 5.37792C51.0682 5.56912 49.9595 5.84015 49.309 5.98108C48.6585 6.12202 46.3967 6.56059 44.2827 6.95679C42.1686 7.35299 40.3394 7.7275 40.2172 7.7886C40.095 7.85069 40.0103 7.95615 40.029 8.02415C40.0546 8.11778 40.5533 8.14537 42.1233 8.14045C43.9939 8.13355 44.3477 8.10299 45.9581 7.81423C46.9338 7.63978 48.7522 7.25443 49.9989 6.95876C51.2456 6.66309 52.8649 6.23831 53.5962 6.01558C54.3275 5.79383 55.0046 5.59475 55.0992 5.57405C55.1938 5.55237 55.2717 5.5908 55.2726 5.6588C55.2726 5.72681 55.1997 5.89337 55.109 6.02839C55.0184 6.1644 54.7858 6.48963 54.5906 6.75179C54.3965 7.01395 53.9707 7.42887 53.6455 7.67428C53.3202 7.91968 52.8432 8.22619 52.586 8.3553C52.3288 8.48539 51.7295 8.7032 51.2555 8.84118C50.7814 8.97818 49.9713 9.17627 49.4569 9.28074C48.9414 9.38521 47.8326 9.53699 46.9929 9.61682C46.1523 9.69763 44.1122 9.79126 42.4594 9.82576C40.8056 9.85927 39.3755 9.90657 39.2809 9.92924C39.1863 9.95191 39.1075 10.0258 39.1065 10.0938C39.1045 10.1618 39.2711 10.2712 39.4761 10.3373C39.6801 10.4033 40.3798 10.5541 41.0303 10.6724C42.0444 10.8567 42.5914 10.8882 44.874 10.8961C46.4933 10.901 47.9016 10.8557 48.4713 10.7808C49.1158 10.696 49.4381 10.6891 49.5061 10.7591C49.5731 10.8281 49.3977 11.0548 48.9641 11.4608C48.6112 11.791 48.0574 12.1901 47.7321 12.3468C47.4069 12.5045 46.853 12.6829 46.5002 12.743C46.0232 12.8248 45.5816 12.8228 44.7754 12.7371C44.1792 12.673 43.0034 12.5114 42.1637 12.3784C41.323 12.2443 40.1265 12.0472 39.5027 11.9398C38.8788 11.8324 38.2254 11.7446 38.049 11.7446C37.8726 11.7446 37.706 11.789 37.6794 11.8432C37.6518 11.8974 37.6922 12.0196 37.7681 12.1142C37.844 12.2088 38.1209 12.4069 38.3841 12.5528C38.6472 12.6997 39.3499 12.9943 39.9462 13.2092C40.5424 13.424 41.4295 13.6694 41.9173 13.7542C42.4052 13.8399 43.1966 13.9434 43.6775 13.9848C44.1575 14.0262 44.5744 14.1051 44.6049 14.1593C44.6355 14.2135 44.5083 14.385 44.324 14.5397C44.1388 14.6954 43.7426 14.9369 43.4449 15.0768C43.0251 15.2739 42.759 15.3291 42.2623 15.3222C41.8562 15.3173 41.3141 15.2148 40.7839 15.0443C40.3237 14.8965 39.2918 14.4924 38.4925 14.1474C37.6932 13.8015 36.9274 13.5187 36.7924 13.5187C36.6564 13.5187 36.5233 13.5857 36.4967 13.6665C36.4701 13.7473 36.5056 13.9139 36.5775 14.0361C36.6495 14.1583 37.1699 14.5811 37.7356 14.9773C38.3013 15.3725 39.0631 15.8387 39.4288 16.0121C39.7954 16.1856 40.095 16.3827 40.094 16.4507C40.094 16.5187 39.9501 16.637 39.7737 16.7138C39.5973 16.7907 39.2317 16.8853 38.9606 16.9238C38.6758 16.9642 38.2599 16.9454 37.9751 16.8814C37.6465 16.8071 37.3775 16.6632 37.1679 16.4497C36.9668 16.2457 36.7086 15.7569 36.4504 15.0956C36.2257 14.521 35.9379 13.5127 35.8039 12.8288C35.6698 12.1517 35.4865 11.3977 35.3949 11.1533C35.3042 10.9089 35.0174 10.4881 34.2851 9.72424L34.8341 9.18219C35.1357 8.88455 35.6442 8.25182 35.9645 7.77776C36.2838 7.30371 36.6899 6.81191 36.8663 6.68477C37.0427 6.55764 37.3197 6.40488 37.4823 6.34377C37.6449 6.28365 38.7093 6.02938 39.8476 5.77806C40.986 5.52772 42.8703 5.08028 44.0363 4.78363C45.2022 4.48697 47.1309 3.95477 48.3235 3.60095C49.516 3.24615 52.2657 2.36309 54.4339 1.63772C56.6022 0.912344 58.5969 0.232305 58.866 0.12685C59.1804 0.00365535 59.3923 -0.0318239 59.4573 0.0292809ZM1.326 0.558527C2.02279 0.796047 3.87959 1.41104 5.45156 1.9255C7.02353 2.43996 9.39577 3.17223 10.7243 3.55463C12.0519 3.93604 14.5355 4.57863 16.2434 4.98173C17.9504 5.38383 19.9245 5.83226 20.6292 5.97616C21.4935 6.15356 22.079 6.33293 22.4278 6.52807C22.7964 6.73405 23.0675 6.99424 23.371 7.43281C23.6056 7.77185 24.0156 8.35333 24.2827 8.72587C24.5498 9.09743 24.8129 9.45913 24.8671 9.5291C24.9381 9.62076 24.872 9.76071 24.6276 10.0347C24.4413 10.2436 24.1703 10.6802 24.0245 11.0055C23.8796 11.3307 23.6825 11.8412 23.5869 12.1389C23.4913 12.4365 23.3079 12.8248 23.1788 13.0012C23.0192 13.221 22.6506 13.4615 22.009 13.765C21.4935 14.0095 20.5957 14.4126 20.0132 14.6619C19.4308 14.9113 18.6433 15.1793 18.2638 15.2592C17.7316 15.3705 17.4389 15.3804 16.9826 15.3025C16.6574 15.2473 16.1912 15.1192 15.9478 15.0167C15.7034 14.9152 15.3357 14.6806 15.1298 14.4953C14.9238 14.311 14.7907 14.1297 14.8341 14.0932C14.8775 14.0568 15.4225 13.9769 16.0463 13.9148C16.6692 13.8528 17.5119 13.7394 17.9189 13.6625C18.325 13.5857 18.9459 13.428 19.2987 13.3127C19.6505 13.1974 20.2054 12.9687 20.5306 12.8051C20.8559 12.6415 21.2442 12.4247 21.393 12.3232C21.5418 12.2217 21.664 12.0719 21.664 11.991C21.664 11.9102 21.5862 11.8264 21.4916 11.8067C21.3969 11.787 20.986 11.8255 20.5799 11.8935C20.1729 11.9605 19.0198 12.1556 18.0175 12.3281C16.9008 12.5193 15.66 12.6622 14.8144 12.6977C13.9737 12.7332 13.1557 12.7125 12.7201 12.6445C12.3268 12.5834 11.7503 12.4355 11.4388 12.3163C11.0505 12.1665 10.677 11.9112 10.2512 11.5032C9.91023 11.175 9.63329 10.8517 9.63526 10.7837C9.63822 10.7157 9.6737 10.6457 9.71411 10.627C9.75451 10.6083 10.2532 10.6507 10.8229 10.7206C11.3915 10.7906 12.9221 10.8783 14.223 10.9148C15.8206 10.9601 16.8919 10.9444 17.5247 10.8665C18.0391 10.8034 18.8374 10.6625 19.2987 10.5551C19.7589 10.4476 20.2024 10.3176 20.2842 10.2673C20.4055 10.1924 20.4094 10.153 20.304 10.0485C20.2074 9.9529 19.3884 9.9046 17.0023 9.85237C15.2569 9.81491 13.1636 9.71242 12.3505 9.62569C11.5374 9.53896 10.406 9.37733 9.8373 9.26596C9.26765 9.15558 8.51369 8.97522 8.16185 8.8668C7.80902 8.75741 7.25513 8.53664 6.9299 8.376C6.60466 8.21535 6.10597 7.90982 5.82114 7.69694C5.53533 7.48308 5.08197 6.98931 4.80798 6.59509C4.53597 6.20185 4.31422 5.82537 4.3152 5.75736C4.31717 5.68936 4.35167 5.63417 4.39208 5.63318C4.43249 5.63318 4.93118 5.78988 5.50083 5.98207C6.0695 6.17327 7.04521 6.45908 7.66907 6.61677C8.29194 6.77446 9.7555 7.10265 10.9214 7.34608C12.0864 7.58952 13.6169 7.8842 14.3216 8.0005C15.2766 8.15917 16.0838 8.21732 17.4941 8.22915C18.6413 8.239 19.4278 8.20747 19.4938 8.14735C19.5727 8.07639 19.5677 8.01528 19.4751 7.92658C19.4051 7.85858 18.8158 7.69399 18.1653 7.55995C17.5148 7.42592 15.6294 7.07013 13.9767 6.76855C12.3229 6.46795 10.5489 6.13089 10.0344 6.02149C9.51897 5.91111 8.74333 5.73272 8.30968 5.6253C7.87604 5.51688 7.09941 5.29119 6.58495 5.12266C6.0695 4.95511 5.0938 4.57666 4.41672 4.28296C3.73865 3.98927 2.9847 3.63348 2.74126 3.49156C2.49684 3.35062 2.07601 3.06875 1.80498 2.86671C1.53395 2.66369 1.1072 2.23891 0.855884 1.92254C0.604566 1.60618 0.299042 1.14789 0.176833 0.903473C0.0536376 0.659054 -0.0232357 0.385068 0.00633115 0.293411C0.0526525 0.145576 0.200486 0.175143 1.326 0.558527ZM31.2979 3.18702C31.4743 3.17815 31.6842 3.23728 31.766 3.3181C31.8468 3.39891 31.9129 3.54379 31.9129 3.6384C31.9119 3.73302 31.8163 4.00996 31.4891 4.69788L31.6773 5.45677C31.836 6.09738 31.8449 6.25014 31.7355 6.44233C31.6645 6.56651 31.5758 6.91145 31.4704 7.74721L30.6326 7.90096L30.6297 8.56621C30.6267 9.08461 30.6701 9.29158 30.8268 9.50249C30.9362 9.65131 31.1934 9.82477 31.3964 9.88686C31.5995 9.94895 32.0982 10.151 32.5052 10.3363C32.9113 10.5206 33.3488 10.7689 33.476 10.8882C33.6031 11.0065 33.7914 11.2706 33.8948 11.4736C33.9973 11.6766 34.0821 11.9102 34.0821 11.991C34.0821 12.0719 34.0151 12.1389 33.9343 12.1389C33.8525 12.1389 33.7194 12.2936 33.6386 12.4838C33.5568 12.674 33.3912 12.8958 33.269 12.9776C33.1468 13.0594 32.9251 13.1254 32.7762 13.1254C32.6274 13.1244 32.383 13.0771 32.2342 13.02C32.0854 12.9628 31.8015 12.7519 31.2437 12.1881L31.0121 12.5094C30.8849 12.6868 30.6691 12.8761 30.5341 12.9303C30.3981 12.9855 30.1546 13.0367 29.992 13.0446C29.8294 13.0525 29.3741 13.019 28.9808 12.9687C28.3304 12.8859 28.2653 12.8938 28.2663 13.0505C28.2663 13.1451 28.4112 13.3472 28.5876 13.4999C28.764 13.6517 29.0853 13.835 29.3021 13.907C29.587 14.0016 29.9546 14.0183 30.6326 13.9681C31.4398 13.9089 31.6438 13.9267 32.111 14.0982C32.4086 14.2076 32.726 14.3771 32.8147 14.4747C32.9438 14.6176 32.9862 14.9605 33.0285 16.2289C33.063 17.2391 33.1468 18.071 33.2611 18.545C33.4011 19.1245 33.4395 19.6902 33.4405 21.1568C33.4415 22.6183 33.4011 23.2126 33.2582 23.867C33.1576 24.3273 32.9221 25.1709 32.7348 25.7396C32.5486 26.3083 32.1494 27.2623 31.8488 27.8586C31.5492 28.4548 31.1018 29.2531 30.8554 29.6326C30.609 30.012 30.1399 30.6773 29.8127 31.1109C29.4854 31.5446 28.7492 32.3655 28.1756 32.9352C27.603 33.5048 26.7121 34.2972 26.1976 34.6954C25.6822 35.0946 24.5074 35.9185 23.5859 36.5266C22.6644 37.1347 21.7311 37.8285 21.5113 38.068C21.2915 38.3065 20.9318 38.8131 20.712 39.1925C20.4922 39.572 20.1561 40.0155 19.9649 40.1781C19.7737 40.3407 19.4455 40.5289 19.2356 40.595C19.0267 40.662 18.7113 40.7172 18.5349 40.7182C18.2737 40.7201 18.183 40.661 18.0421 40.3998C17.909 40.1525 17.8696 39.843 17.8696 39.0447C17.8696 38.1725 17.9041 37.9399 18.0894 37.5663C18.2244 37.2953 18.5447 36.9316 18.9163 36.6301C19.2494 36.359 19.7215 35.8712 19.9639 35.5459C20.2074 35.2207 20.7741 34.3337 21.2235 33.5748C21.6729 32.8159 22.1775 32.0068 22.3451 31.7762C22.5126 31.5455 22.7491 31.2932 22.8713 31.2154C22.9936 31.1375 23.4252 30.9828 23.8323 30.8724C24.2462 30.7591 24.673 30.5728 24.803 30.4476C24.9292 30.3244 25.1027 30.0909 25.1864 29.9282C25.2702 29.7656 25.558 28.99 25.8261 28.2035C26.0941 27.417 26.3829 26.6414 26.4667 26.4788C26.5514 26.3162 26.8018 25.917 27.0235 25.5918C27.2443 25.2665 27.7814 24.6309 28.216 24.1785C28.8202 23.5507 28.9789 23.3299 28.8902 23.2422C28.8015 23.1555 28.4447 23.3329 27.3872 23.9902C26.6244 24.4643 25.6349 25.0359 25.1874 25.2596C24.74 25.4843 23.9969 25.8323 23.5366 26.0343C23.0754 26.2353 22.211 26.5665 21.6148 26.7685C21.0185 26.9716 20.2458 27.2771 19.8979 27.4486C19.55 27.6201 19.0227 27.9818 18.7271 28.2528C18.4314 28.5238 18.1062 28.9121 18.0046 29.1152C17.9031 29.3182 17.7533 29.4847 17.6725 29.4847C17.5907 29.4847 17.433 29.2965 17.3217 29.0659C17.1758 28.7633 17.1344 28.5376 17.1758 28.2528C17.2063 28.036 17.3552 27.6595 17.5069 27.4151C17.6577 27.1706 17.979 26.8099 18.2195 26.6138C18.461 26.4167 18.935 26.1171 19.274 25.9485C19.6131 25.779 20.2557 25.5356 20.7031 25.4065C21.1506 25.2774 21.9153 25.1187 22.4032 25.0556C22.8911 24.9916 23.6894 24.8063 24.1772 24.6427C24.6651 24.4801 25.4851 24.1351 26.0005 23.8759C26.515 23.6177 27.2689 23.1929 27.676 22.9317C28.082 22.6716 28.7473 22.2005 29.1543 21.8871C29.5603 21.5727 30.0354 21.1912 30.2088 21.0395C30.3833 20.8867 30.5272 20.729 30.5292 20.6886C30.5321 20.6482 30.4119 20.6551 30.2631 20.7034C30.1142 20.7527 29.2607 21.1459 28.3658 21.5766C27.471 22.0083 26.6401 22.3897 26.2962 22.4873L26.5406 22.1177C26.6746 21.9146 26.8895 21.3933 27.0186 20.9596C27.1467 20.526 27.4187 19.7504 27.6227 19.2349C27.875 18.5992 28.012 18.0769 28.0475 17.6087C28.0968 16.9849 28.0731 16.8577 27.8011 16.2782C27.6355 15.9264 27.2403 15.1754 26.923 14.6116C26.6056 14.0469 26.3011 13.5689 26.2469 13.5502C26.1927 13.5315 26.0616 13.6606 25.9562 13.838C25.8507 14.0144 25.4338 14.6028 25.0307 15.1448C24.6266 15.6869 23.8944 16.6626 23.4035 17.3131C22.9127 17.9635 22.0928 18.9619 21.5812 19.5306C21.0697 20.0992 20.4873 20.8098 20.2862 21.1075C20.0852 21.4051 19.7806 21.7717 19.6091 21.9206C19.4386 22.0694 19.2317 22.1916 19.1509 22.1916C19.0691 22.1916 18.9212 22.092 18.6384 21.7481L18.3033 21.9896C18.119 22.1226 17.8006 22.367 17.5966 22.5316C17.3029 22.7691 17.2004 22.8066 17.1038 22.711C17.0082 22.6154 17.0171 22.503 17.1492 22.1689C17.2408 21.9373 17.5069 21.5342 17.7405 21.2721C18.1071 20.8621 18.2589 20.7714 18.8552 20.6098C19.4455 20.4501 19.6091 20.3545 19.9886 19.9435C20.232 19.6804 20.6479 19.091 20.912 18.6347C21.1752 18.1794 21.597 17.4589 21.8483 17.0361C22.0987 16.6123 22.6092 15.9254 22.9807 15.5085C23.3523 15.0916 23.8303 14.4845 24.0432 14.1593C24.2561 13.834 24.5645 13.2348 24.7281 12.8288C24.8917 12.4217 25.1785 11.7683 25.3648 11.3751C25.691 10.6891 25.7295 10.6497 26.3208 10.3777C26.6598 10.222 27.1585 10.015 27.4296 9.91741C27.7006 9.81984 28.0327 9.62273 28.1687 9.48081C28.3038 9.33889 28.4703 9.01366 28.5383 8.7584C28.6063 8.50412 28.6605 8.06259 28.6595 7.77776C28.6576 7.29286 28.6379 7.25147 28.3412 7.11251C28.1677 7.03169 27.947 6.83162 27.8504 6.669C27.7538 6.50639 27.6474 6.12892 27.6129 5.83128C27.5794 5.53364 27.5794 5.07831 27.6139 4.82108C27.6582 4.48796 27.7686 4.24945 27.9963 3.99518C28.1727 3.79905 28.4496 3.56744 28.6122 3.48071C28.7985 3.38216 29.2893 3.30134 29.9427 3.26389C30.5114 3.23038 31.1215 3.19589 31.2979 3.18702ZM29.9694 25.1976C29.7496 25.5228 29.2696 26.2551 28.903 26.8237C28.5364 27.3924 27.8159 28.5238 27.3014 29.3369C26.787 30.15 26.2292 30.9897 26.0606 31.2036C25.8921 31.4174 25.1332 32.0866 24.3743 32.6918C23.6154 33.2969 22.5244 34.2746 21.9508 34.8659C21.3762 35.4563 20.8746 36.0505 20.8352 36.1866C20.7958 36.3216 20.7898 36.4556 20.8214 36.4822C20.8519 36.5088 20.9879 36.4763 21.123 36.4083C21.258 36.3403 21.9341 35.88 22.625 35.3853C23.3158 34.8905 24.192 34.2391 24.5714 33.9385C24.9509 33.6379 25.6171 33.0781 26.0517 32.6947C26.4864 32.3113 27.129 31.6756 27.4808 31.2814C27.8317 30.8872 28.354 30.2219 28.6418 29.8031C28.9286 29.3842 29.379 28.5977 29.6422 28.0557C29.9063 27.5136 30.2857 26.6266 30.4848 26.0846C30.6849 25.5425 30.8554 24.9265 30.8642 24.7156C30.8721 24.5047 30.8317 24.3145 30.7736 24.2938C30.7154 24.2731 30.6001 24.3352 30.5183 24.4318C30.4365 24.5274 30.1891 24.8723 29.9694 25.1976ZM34.2083 12.4838L34.3315 12.7302C34.3995 12.8652 34.6173 13.5975 34.8163 14.3564C35.0164 15.1153 35.2559 15.9136 35.3515 16.1304C35.4461 16.3472 35.8768 16.9908 36.3095 17.5595C36.7411 18.1281 37.4705 19.1442 37.9297 19.8174C38.388 20.4895 38.8522 21.0996 38.9606 21.1735C39.069 21.2464 39.4238 21.3933 39.7491 21.4987C40.0743 21.6052 40.4705 21.7924 40.6292 21.9166C40.7879 22.0408 40.9978 22.3197 41.0953 22.5365C41.1929 22.7534 41.2737 23.053 41.2747 23.2018C41.2757 23.3506 41.2215 23.5014 41.1535 23.5359C41.0796 23.5743 40.8736 23.4117 40.6361 23.1259C40.3956 22.8361 40.1936 22.6775 40.1187 22.7169C40.0428 22.7573 40.0171 22.8874 40.0507 23.054C40.0842 23.2166 40.0546 23.3733 39.9767 23.4452C39.8752 23.5398 39.8013 23.5349 39.6259 23.4206C39.5037 23.3408 39.1449 22.9317 38.8295 22.5119C38.5132 22.0921 37.9041 21.4376 37.4754 21.0582C37.0467 20.6788 36.274 19.9475 35.7576 19.432C35.0667 18.7431 34.7375 18.3262 34.5098 17.8551C34.3383 17.5023 34.1452 16.9484 34.0782 16.6232C33.9944 16.2132 33.9776 15.5627 34.022 14.5042C34.0575 13.6645 34.1146 12.8652 34.1471 12.7302L34.2083 12.4838ZM21.1466 15.4937C21.2274 15.4917 21.2442 15.5499 21.1959 15.6622C21.1555 15.7578 20.9889 16.0693 20.8263 16.3551C20.5641 16.8183 20.4952 16.8755 20.2103 16.8725C20.0349 16.8705 19.7353 16.8025 19.5451 16.7217C19.3558 16.6399 19.2001 16.5069 19.2001 16.4261C19.2001 16.3354 19.4189 16.2004 19.7668 16.0762C20.0793 15.9648 20.4892 15.7894 20.6785 15.6859C20.8687 15.5824 21.0796 15.4967 21.1466 15.4937ZM26.0616 15.7854C26.1365 15.7854 26.2932 15.9964 26.4095 16.2536C26.5248 16.5108 26.6411 16.8765 26.6667 17.0667C26.7003 17.318 26.6658 17.452 26.5366 17.5595C26.4401 17.6403 26.1582 17.724 25.9098 17.7447C25.6615 17.7654 25.3589 17.7319 25.0149 17.5595L25.3688 16.7956C25.5629 16.3758 25.7679 15.9766 25.8231 15.9086C25.8793 15.8406 25.9857 15.7854 26.0616 15.7854ZM24.7932 26.4295C24.8612 26.4295 24.9154 26.4847 24.9144 26.5527C24.9134 26.6207 24.7419 27.2081 24.534 27.8586C24.2314 28.8037 24.1082 29.0639 23.92 29.1546C23.7909 29.2177 23.3355 29.4394 22.9088 29.6474C22.3727 29.9095 21.9834 30.1874 21.6522 30.5442C21.3881 30.829 21.0451 31.3386 20.8904 31.6776C20.7356 32.0166 20.5582 32.4158 20.4961 32.5646C20.3976 32.8012 20.3424 32.8288 20.0625 32.7824C19.8871 32.7529 19.4544 32.5863 19.1016 32.4128C18.5112 32.1211 18.459 32.0699 18.4334 31.7515C18.4156 31.5298 18.5053 31.1967 18.6857 30.8152C18.8453 30.4782 19.2179 29.9657 19.551 29.6217C19.8733 29.2916 20.4469 28.8195 20.8263 28.5741C21.2057 28.3277 22.2258 27.7452 23.0931 27.2781C23.9604 26.8109 24.7262 26.4295 24.7932 26.4295Z" fill="white"/>
<path fill-rule="evenodd" clip-rule="evenodd" d="M59.4573 0.0292809C59.5263 0.0923568 59.4563 0.321993 59.2435 0.734943C59.07 1.072 58.6679 1.63574 58.3496 1.98759C58.0214 2.35028 57.4093 2.8608 56.9402 3.16435C56.4829 3.45903 55.7102 3.88578 55.2224 4.11147C54.7345 4.33717 54.0476 4.63678 53.6948 4.77673C53.3419 4.91569 52.4776 5.18672 51.7729 5.37792C51.0682 5.56912 49.9595 5.84015 49.309 5.98108C48.6585 6.12202 46.3967 6.56059 44.2827 6.95679C42.1686 7.35299 40.3394 7.7275 40.2172 7.7886C40.095 7.85069 40.0103 7.95615 40.029 8.02415C40.0546 8.11778 40.5533 8.14537 42.1233 8.14045C43.9939 8.13355 44.3477 8.10299 45.9581 7.81423C46.9338 7.63978 48.7522 7.25443 49.9989 6.95876C51.2456 6.66309 52.8649 6.23831 53.5962 6.01558C54.3275 5.79383 55.0046 5.59475 55.0992 5.57405C55.1938 5.55237 55.2717 5.5908 55.2726 5.6588C55.2726 5.72681 55.1997 5.89337 55.109 6.02839C55.0184 6.1644 54.7858 6.48963 54.5906 6.75179C54.3965 7.01395 53.9707 7.42887 53.6455 7.67428C53.3202 7.91968 52.8432 8.22619 52.586 8.3553C52.3288 8.48539 51.7295 8.7032 51.2555 8.84118C50.7814 8.97818 49.9713 9.17627 49.4569 9.28074C48.9414 9.38521 47.8326 9.53699 46.9929 9.61682C46.1523 9.69763 44.1122 9.79126 42.4594 9.82576C40.8056 9.85927 39.3755 9.90657 39.2809 9.92924C39.1863 9.95191 39.1075 10.0258 39.1065 10.0938C39.1045 10.1618 39.2711 10.2712 39.4761 10.3373C39.6801 10.4033 40.3798 10.5541 41.0303 10.6724C42.0444 10.8567 42.5914 10.8882 44.874 10.8961C46.4933 10.901 47.9016 10.8557 48.4713 10.7808C49.1158 10.696 49.4381 10.6891 49.5061 10.7591C49.5731 10.8281 49.3977 11.0548 48.9641 11.4608C48.6112 11.791 48.0574 12.1901 47.7321 12.3468C47.4069 12.5045 46.853 12.6829 46.5002 12.743C46.0232 12.8248 45.5816 12.8228 44.7754 12.7371C44.1792 12.673 43.0034 12.5114 42.1637 12.3784C41.323 12.2443 40.1265 12.0472 39.5027 11.9398C38.8788 11.8324 38.2254 11.7446 38.049 11.7446C37.8726 11.7446 37.706 11.789 37.6794 11.8432C37.6518 11.8974 37.6922 12.0196 37.7681 12.1142C37.844 12.2088 38.1209 12.4069 38.3841 12.5528C38.6472 12.6997 39.3499 12.9943 39.9462 13.2092C40.5424 13.424 41.4295 13.6694 41.9173 13.7542C42.4052 13.8399 43.1966 13.9434 43.6775 13.9848C44.1575 14.0262 44.5744 14.1051 44.6049 14.1593C44.6355 14.2135 44.5083 14.385 44.324 14.5397C44.1388 14.6954 43.7426 14.9369 43.4449 15.0768C43.0251 15.2739 42.759 15.3291 42.2623 15.3222C41.8562 15.3173 41.3141 15.2148 40.7839 15.0443C40.3237 14.8965 39.2918 14.4924 38.4925 14.1474C37.6932 13.8015 36.9274 13.5187 36.7924 13.5187C36.6564 13.5187 36.5233 13.5857 36.4967 13.6665C36.4701 13.7473 36.5056 13.9139 36.5775 14.0361C36.6495 14.1583 37.1699 14.5811 37.7356 14.9773C38.3013 15.3725 39.0631 15.8387 39.4288 16.0121C39.7954 16.1856 40.095 16.3827 40.094 16.4507C40.094 16.5187 39.9501 16.637 39.7737 16.7138C39.5973 16.7907 39.2317 16.8853 38.9606 16.9238C38.6758 16.9642 38.2599 16.9454 37.9751 16.8814C37.6465 16.8071 37.3775 16.6632 37.1679 16.4497C36.9668 16.2457 36.7086 15.7569 36.4504 15.0956C36.2257 14.521 35.9379 13.5127 35.8039 12.8288C35.6698 12.1517 35.4865 11.3977 35.3949 11.1533C35.3042 10.9089 35.0174 10.4881 34.2851 9.72424L34.8341 9.18219C35.1357 8.88455 35.6442 8.25182 35.9645 7.77776C36.2838 7.30371 36.6899 6.81191 36.8663 6.68477C37.0427 6.55764 37.3197 6.40488 37.4823 6.34377C37.6449 6.28365 38.7093 6.02938 39.8476 5.77806C40.986 5.52772 42.8703 5.08028 44.0363 4.78363C45.2022 4.48697 47.1309 3.95477 48.3235 3.60095C49.516 3.24615 52.2657 2.36309 54.4339 1.63772C56.6022 0.912344 58.5969 0.232305 58.866 0.12685C59.1804 0.00365535 59.3923 -0.0318239 59.4573 0.0292809ZM1.326 0.558527C2.02279 0.796047 3.87959 1.41104 5.45156 1.9255C7.02353 2.43996 9.39577 3.17223 10.7243 3.55463C12.0519 3.93604 14.5355 4.57863 16.2434 4.98173C17.9504 5.38383 19.9245 5.83226 20.6292 5.97616C21.4935 6.15356 22.079 6.33293 22.4278 6.52807C22.7964 6.73405 23.0675 6.99424 23.371 7.43281C23.6056 7.77185 24.0156 8.35333 24.2827 8.72587C24.5498 9.09743 24.8129 9.45913 24.8671 9.5291C24.9381 9.62076 24.872 9.76071 24.6276 10.0347C24.4413 10.2436 24.1703 10.6802 24.0245 11.0055C23.8796 11.3307 23.6825 11.8412 23.5869 12.1389C23.4913 12.4365 23.3079 12.8248 23.1788 13.0012C23.0192 13.221 22.6506 13.4615 22.009 13.765C21.4935 14.0095 20.5957 14.4126 20.0132 14.6619C19.4308 14.9113 18.6433 15.1793 18.2638 15.2592C17.7316 15.3705 17.4389 15.3804 16.9826 15.3025C16.6574 15.2473 16.1912 15.1192 15.9478 15.0167C15.7034 14.9152 15.3357 14.6806 15.1298 14.4953C14.9238 14.311 14.7907 14.1297 14.8341 14.0932C14.8775 14.0568 15.4225 13.9769 16.0463 13.9148C16.6692 13.8528 17.5119 13.7394 17.9189 13.6625C18.325 13.5857 18.9459 13.428 19.2987 13.3127C19.6505 13.1974 20.2054 12.9687 20.5306 12.8051C20.8559 12.6415 21.2442 12.4247 21.393 12.3232C21.5418 12.2217 21.664 12.0719 21.664 11.991C21.664 11.9102 21.5862 11.8264 21.4916 11.8067C21.3969 11.787 20.986 11.8255 20.5799 11.8935C20.1729 11.9605 19.0198 12.1556 18.0175 12.3281C16.9008 12.5193 15.66 12.6622 14.8144 12.6977C13.9737 12.7332 13.1557 12.7125 12.7201 12.6445C12.3268 12.5834 11.7503 12.4355 11.4388 12.3163C11.0505 12.1665 10.677 11.9112 10.2512 11.5032C9.91023 11.175 9.63329 10.8517 9.63526 10.7837C9.63822 10.7157 9.6737 10.6457 9.71411 10.627C9.75451 10.6083 10.2532 10.6507 10.8229 10.7206C11.3915 10.7906 12.9221 10.8783 14.223 10.9148C15.8206 10.9601 16.8919 10.9444 17.5247 10.8665C18.0391 10.8034 18.8374 10.6625 19.2987 10.5551C19.7589 10.4476 20.2024 10.3176 20.2842 10.2673C20.4055 10.1924 20.4094 10.153 20.304 10.0485C20.2074 9.9529 19.3884 9.9046 17.0023 9.85237C15.2569 9.81491 13.1636 9.71242 12.3505 9.62569C11.5374 9.53896 10.406 9.37733 9.8373 9.26596C9.26765 9.15558 8.51369 8.97522 8.16185 8.8668C7.80902 8.75741 7.25513 8.53664 6.9299 8.376C6.60466 8.21535 6.10597 7.90982 5.82114 7.69694C5.53533 7.48308 5.08197 6.98931 4.80798 6.59509C4.53597 6.20185 4.31422 5.82537 4.3152 5.75736C4.31717 5.68936 4.35167 5.63417 4.39208 5.63318C4.43249 5.63318 4.93118 5.78988 5.50083 5.98207C6.0695 6.17327 7.04521 6.45908 7.66907 6.61677C8.29194 6.77446 9.7555 7.10265 10.9214 7.34608C12.0864 7.58952 13.6169 7.8842 14.3216 8.0005C15.2766 8.15917 16.0838 8.21732 17.4941 8.22915C18.6413 8.239 19.4278 8.20747 19.4938 8.14735C19.5727 8.07639 19.5677 8.01528 19.4751 7.92658C19.4051 7.85858 18.8158 7.69399 18.1653 7.55995C17.5148 7.42592 15.6294 7.07013 13.9767 6.76855C12.3229 6.46795 10.5489 6.13089 10.0344 6.02149C9.51897 5.91111 8.74333 5.73272 8.30968 5.6253C7.87604 5.51688 7.09941 5.29119 6.58495 5.12266C6.0695 4.95511 5.0938 4.57666 4.41672 4.28296C3.73865 3.98927 2.9847 3.63348 2.74126 3.49156C2.49684 3.35062 2.07601 3.06875 1.80498 2.86671C1.53395 2.66369 1.1072 2.23891 0.855884 1.92254C0.604566 1.60618 0.299042 1.14789 0.176833 0.903473C0.0536376 0.659054 -0.0232357 0.385068 0.00633115 0.293411C0.0526525 0.145576 0.200486 0.175143 1.326 0.558527ZM31.2979 3.18702C31.4743 3.17815 31.6842 3.23728 31.766 3.3181C31.8468 3.39891 31.9129 3.54379 31.9129 3.6384C31.9119 3.73302 31.8163 4.00996 31.4891 4.69788L31.6773 5.45677C31.836 6.09738 31.8449 6.25014 31.7355 6.44233C31.6645 6.56651 31.5758 6.91145 31.4704 7.74721L30.6326 7.90096L30.6297 8.56621C30.6267 9.08461 30.6701 9.29158 30.8268 9.50249C30.9362 9.65131 31.1934 9.82477 31.3964 9.88686C31.5995 9.94895 32.0982 10.151 32.5052 10.3363C32.9113 10.5206 33.3488 10.7689 33.476 10.8882C33.6031 11.0065 33.7914 11.2706 33.8948 11.4736C33.9973 11.6766 34.0821 11.9102 34.0821 11.991C34.0821 12.0719 34.0151 12.1389 33.9343 12.1389C33.8525 12.1389 33.7194 12.2936 33.6386 12.4838C33.5568 12.674 33.3912 12.8958 33.269 12.9776C33.1468 13.0594 32.9251 13.1254 32.7762 13.1254C32.6274 13.1244 32.383 13.0771 32.2342 13.02C32.0854 12.9628 31.8015 12.7519 31.2437 12.1881L31.0121 12.5094C30.8849 12.6868 30.6691 12.8761 30.5341 12.9303C30.3981 12.9855 30.1546 13.0367 29.992 13.0446C29.8294 13.0525 29.3741 13.019 28.9808 12.9687C28.3304 12.8859 28.2653 12.8938 28.2663 13.0505C28.2663 13.1451 28.4112 13.3472 28.5876 13.4999C28.764 13.6517 29.0853 13.835 29.3021 13.907C29.587 14.0016 29.9546 14.0183 30.6326 13.9681C31.4398 13.9089 31.6438 13.9267 32.111 14.0982C32.4086 14.2076 32.726 14.3771 32.8147 14.4747C32.9438 14.6176 32.9862 14.9605 33.0285 16.2289C33.063 17.2391 33.1468 18.071 33.2611 18.545C33.4011 19.1245 33.4395 19.6902 33.4405 21.1568C33.4415 22.6183 33.4011 23.2126 33.2582 23.867C33.1576 24.3273 32.9221 25.1709 32.7348 25.7396C32.5486 26.3083 32.1494 27.2623 31.8488 27.8586C31.5492 28.4548 31.1018 29.2531 30.8554 29.6326C30.609 30.012 30.1399 30.6773 29.8127 31.1109C29.4854 31.5446 28.7492 32.3655 28.1756 32.9352C27.603 33.5048 26.7121 34.2972 26.1976 34.6954C25.6822 35.0946 24.5074 35.9185 23.5859 36.5266C22.6644 37.1347 21.7311 37.8285 21.5113 38.068C21.2915 38.3065 20.9318 38.8131 20.712 39.1925C20.4922 39.572 20.1561 40.0155 19.9649 40.1781C19.7737 40.3407 19.4455 40.5289 19.2356 40.595C19.0267 40.662 18.7113 40.7172 18.5349 40.7182C18.2737 40.7201 18.183 40.661 18.0421 40.3998C17.909 40.1525 17.8696 39.843 17.8696 39.0447C17.8696 38.1725 17.9041 37.9399 18.0894 37.5663C18.2244 37.2953 18.5447 36.9316 18.9163 36.6301C19.2494 36.359 19.7215 35.8712 19.9639 35.5459C20.2074 35.2207 20.7741 34.3337 21.2235 33.5748C21.6729 32.8159 22.1775 32.0068 22.3451 31.7762C22.5126 31.5455 22.7491 31.2932 22.8713 31.2154C22.9936 31.1375 23.4252 30.9828 23.8323 30.8724C24.2462 30.7591 24.673 30.5728 24.803 30.4476C24.9292 30.3244 25.1027 30.0909 25.1864 29.9282C25.2702 29.7656 25.558 28.99 25.8261 28.2035C26.0941 27.417 26.3829 26.6414 26.4667 26.4788C26.5514 26.3162 26.8018 25.917 27.0235 25.5918C27.2443 25.2665 27.7814 24.6309 28.216 24.1785C28.8202 23.5507 28.9789 23.3299 28.8902 23.2422C28.8015 23.1555 28.4447 23.3329 27.3872 23.9902C26.6244 24.4643 25.6349 25.0359 25.1874 25.2596C24.74 25.4843 23.9969 25.8323 23.5366 26.0343C23.0754 26.2353 22.211 26.5665 21.6148 26.7685C21.0185 26.9716 20.2458 27.2771 19.8979 27.4486C19.55 27.6201 19.0227 27.9818 18.7271 28.2528C18.4314 28.5238 18.1062 28.9121 18.0046 29.1152C17.9031 29.3182 17.7533 29.4847 17.6725 29.4847C17.5907 29.4847 17.433 29.2965 17.3217 29.0659C17.1758 28.7633 17.1344 28.5376 17.1758 28.2528C17.2063 28.036 17.3552 27.6595 17.5069 27.4151C17.6577 27.1706 17.979 26.8099 18.2195 26.6138C18.461 26.4167 18.935 26.1171 19.274 25.9485C19.6131 25.779 20.2557 25.5356 20.7031 25.4065C21.1506 25.2774 21.9153 25.1187 22.4032 25.0556C22.8911 24.9916 23.6894 24.8063 24.1772 24.6427C24.6651 24.4801 25.4851 24.1351 26.0005 23.8759C26.515 23.6177 27.2689 23.1929 27.676 22.9317C28.082 22.6716 28.7473 22.2005 29.1543 21.8871C29.5603 21.5727 30.0354 21.1912 30.2088 21.0395C30.3833 20.8867 30.5272 20.729 30.5292 20.6886C30.5321 20.6482 30.4119 20.6551 30.2631 20.7034C30.1142 20.7527 29.2607 21.1459 28.3658 21.5766C27.471 22.0083 26.6401 22.3897 26.2962 22.4873L26.5406 22.1177C26.6746 21.9146 26.8895 21.3933 27.0186 20.9596C27.1467 20.526 27.4187 19.7504 27.6227 19.2349C27.875 18.5992 28.012 18.0769 28.0475 17.6087C28.0968 16.9849 28.0731 16.8577 27.8011 16.2782C27.6355 15.9264 27.2403 15.1754 26.923 14.6116C26.6056 14.0469 26.3011 13.5689 26.2469 13.5502C26.1927 13.5315 26.0616 13.6606 25.9562 13.838C25.8507 14.0144 25.4338 14.6028 25.0307 15.1448C24.6266 15.6869 23.8944 16.6626 23.4035 17.3131C22.9127 17.9635 22.0928 18.9619 21.5812 19.5306C21.0697 20.0992 20.4873 20.8098 20.2862 21.1075C20.0852 21.4051 19.7806 21.7717 19.6091 21.9206C19.4386 22.0694 19.2317 22.1916 19.1509 22.1916C19.0691 22.1916 18.9212 22.092 18.6384 21.7481L18.3033 21.9896C18.119 22.1226 17.8006 22.367 17.5966 22.5316C17.3029 22.7691 17.2004 22.8066 17.1038 22.711C17.0082 22.6154 17.0171 22.503 17.1492 22.1689C17.2408 21.9373 17.5069 21.5342 17.7405 21.2721C18.1071 20.8621 18.2589 20.7714 18.8552 20.6098C19.4455 20.4501 19.6091 20.3545 19.9886 19.9435C20.232 19.6804 20.6479 19.091 20.912 18.6347C21.1752 18.1794 21.597 17.4589 21.8483 17.0361C22.0987 16.6123 22.6092 15.9254 22.9807 15.5085C23.3523 15.0916 23.8303 14.4845 24.0432 14.1593C24.2561 13.834 24.5645 13.2348 24.7281 12.8288C24.8917 12.4217 25.1785 11.7683 25.3648 11.3751C25.691 10.6891 25.7295 10.6497 26.3208 10.3777C26.6598 10.222 27.1585 10.015 27.4296 9.91741C27.7006 9.81984 28.0327 9.62273 28.1687 9.48081C28.3038 9.33889 28.4703 9.01366 28.5383 8.7584C28.6063 8.50412 28.6605 8.06259 28.6595 7.77776C28.6576 7.29286 28.6379 7.25147 28.3412 7.11251C28.1677 7.03169 27.947 6.83162 27.8504 6.669C27.7538 6.50639 27.6474 6.12892 27.6129 5.83128C27.5794 5.53364 27.5794 5.07831 27.6139 4.82108C27.6582 4.48796 27.7686 4.24945 27.9963 3.99518C28.1727 3.79905 28.4496 3.56744 28.6122 3.48071C28.7985 3.38216 29.2893 3.30134 29.9427 3.26389C30.5114 3.23038 31.1215 3.19589 31.2979 3.18702ZM29.9694 25.1976C29.7496 25.5228 29.2696 26.2551 28.903 26.8237C28.5364 27.3924 27.8159 28.5238 27.3014 29.3369C26.787 30.15 26.2292 30.9897 26.0606 31.2036C25.8921 31.4174 25.1332 32.0866 24.3743 32.6918C23.6154 33.2969 22.5244 34.2746 21.9508 34.8659C21.3762 35.4563 20.8746 36.0505 20.8352 36.1866C20.7958 36.3216 20.7898 36.4556 20.8214 36.4822C20.8519 36.5088 20.9879 36.4763 21.123 36.4083C21.258 36.3403 21.9341 35.88 22.625 35.3853C23.3158 34.8905 24.192 34.2391 24.5714 33.9385C24.9509 33.6379 25.6171 33.0781 26.0517 32.6947C26.4864 32.3113 27.129 31.6756 27.4808 31.2814C27.8317 30.8872 28.354 30.2219 28.6418 29.8031C28.9286 29.3842 29.379 28.5977 29.6422 28.0557C29.9063 27.5136 30.2857 26.6266 30.4848 26.0846C30.6849 25.5425 30.8554 24.9265 30.8642 24.7156C30.8721 24.5047 30.8317 24.3145 30.7736 24.2938C30.7154 24.2731 30.6001 24.3352 30.5183 24.4318C30.4365 24.5274 30.1891 24.8723 29.9694 25.1976ZM34.2083 12.4838L34.3315 12.7302C34.3995 12.8652 34.6173 13.5975 34.8163 14.3564C35.0164 15.1153 35.2559 15.9136 35.3515 16.1304C35.4461 16.3472 35.8768 16.9908 36.3095 17.5595C36.7411 18.1281 37.4705 19.1442 37.9297 19.8174C38.388 20.4895 38.8522 21.0996 38.9606 21.1735C39.069 21.2464 39.4238 21.3933 39.7491 21.4987C40.0743 21.6052 40.4705 21.7924 40.6292 21.9166C40.7879 22.0408 40.9978 22.3197 41.0953 22.5365C41.1929 22.7534 41.2737 23.053 41.2747 23.2018C41.2757 23.3506 41.2215 23.5014 41.1535 23.5359C41.0796 23.5743 40.8736 23.4117 40.6361 23.1259C40.3956 22.8361 40.1936 22.6775 40.1187 22.7169C40.0428 22.7573 40.0171 22.8874 40.0507 23.054C40.0842 23.2166 40.0546 23.3733 39.9767 23.4452C39.8752 23.5398 39.8013 23.5349 39.6259 23.4206C39.5037 23.3408 39.1449 22.9317 38.8295 22.5119C38.5132 22.0921 37.9041 21.4376 37.4754 21.0582C37.0467 20.6788 36.274 19.9475 35.7576 19.432C35.0667 18.7431 34.7375 18.3262 34.5098 17.8551C34.3383 17.5023 34.1452 16.9484 34.0782 16.6232C33.9944 16.2132 33.9776 15.5627 34.022 14.5042C34.0575 13.6645 34.1146 12.8652 34.1471 12.7302L34.2083 12.4838ZM21.1466 15.4937C21.2274 15.4917 21.2442 15.5499 21.1959 15.6622C21.1555 15.7578 20.9889 16.0693 20.8263 16.3551C20.5641 16.8183 20.4952 16.8755 20.2103 16.8725C20.0349 16.8705 19.7353 16.8025 19.5451 16.7217C19.3558 16.6399 19.2001 16.5069 19.2001 16.4261C19.2001 16.3354 19.4189 16.2004 19.7668 16.0762C20.0793 15.9648 20.4892 15.7894 20.6785 15.6859C20.8687 15.5824 21.0796 15.4967 21.1466 15.4937ZM26.0616 15.7854C26.1365 15.7854 26.2932 15.9964 26.4095 16.2536C26.5248 16.5108 26.6411 16.8765 26.6667 17.0667C26.7003 17.318 26.6658 17.452 26.5366 17.5595C26.4401 17.6403 26.1582 17.724 25.9098 17.7447C25.6615 17.7654 25.3589 17.7319 25.0149 17.5595L25.3688 16.7956C25.5629 16.3758 25.7679 15.9766 25.8231 15.9086C25.8793 15.8406 25.9857 15.7854 26.0616 15.7854ZM24.7932 26.4295C24.8612 26.4295 24.9154 26.4847 24.9144 26.5527C24.9134 26.6207 24.7419 27.2081 24.534 27.8586C24.2314 28.8037 24.1082 29.0639 23.92 29.1546C23.7909 29.2177 23.3355 29.4394 22.9088 29.6474C22.3727 29.9095 21.9834 30.1874 21.6522 30.5442C21.3881 30.829 21.0451 31.3386 20.8904 31.6776C20.7356 32.0166 20.5582 32.4158 20.4961 32.5646C20.3976 32.8012 20.3424 32.8288 20.0625 32.7824C19.8871 32.7529 19.4544 32.5863 19.1016 32.4128C18.5112 32.1211 18.459 32.0699 18.4334 31.7515C18.4156 31.5298 18.5053 31.1967 18.6857 30.8152C18.8453 30.4782 19.2179 29.9657 19.551 29.6217C19.8733 29.2916 20.4469 28.8195 20.8263 28.5741C21.2057 28.3277 22.2258 27.7452 23.0931 27.2781C23.9604 26.8109 24.7262 26.4295 24.7932 26.4295Z" fill="white"/>
<path d="M60.2483 14.9252C59.7597 14.9252 59.4116 14.7786 59.2039 14.4855C58.9962 14.1801 58.9352 13.7647 59.0207 13.2395L60.6331 3.10675C60.7064 2.63035 60.8774 2.2761 61.1462 2.044C61.4149 1.79969 61.7814 1.67754 62.2455 1.67754C62.7219 1.67754 63.0579 1.82412 63.2533 2.1173C63.461 2.41047 63.5221 2.82579 63.4366 3.36327L61.8241 13.4777C61.7508 13.9541 61.5859 14.3144 61.3294 14.5587C61.0729 14.8031 60.7125 14.9252 60.2483 14.9252Z" fill="white"/>
<path d="M65.3582 14.8886C64.9307 14.8886 64.6131 14.7481 64.4054 14.4671C64.2099 14.174 64.155 13.777 64.2405 13.2761L65.2299 6.99127C65.3032 6.52708 65.4743 6.18505 65.743 5.96517C66.0117 5.73307 66.366 5.61703 66.8057 5.61703C67.2211 5.61703 67.5264 5.74529 67.7219 6.00181C67.9296 6.24612 67.9906 6.61259 67.9051 7.1012L67.7585 8.07233L67.7219 7.46767C68.0273 6.8569 68.4548 6.39271 69.0045 6.07511C69.5542 5.74529 70.2016 5.58038 70.9468 5.58038C71.6064 5.58038 72.1622 5.71475 72.6142 5.98349C73.0662 6.25223 73.3838 6.66756 73.567 7.22947C73.7624 7.79138 73.793 8.5182 73.6586 9.40993L72.999 13.5143C72.9379 13.9785 72.773 14.3267 72.5042 14.5587C72.2355 14.7786 71.869 14.8886 71.4049 14.8886C70.9773 14.8886 70.6597 14.7481 70.452 14.4671C70.2566 14.174 70.1955 13.777 70.2688 13.2761L70.8735 9.4649C70.9712 8.87856 70.9284 8.44491 70.7452 8.16395C70.5742 7.87078 70.2444 7.72419 69.7558 7.72419C69.1328 7.72419 68.6319 7.92575 68.2533 8.32886C67.8746 8.71975 67.6303 9.26334 67.5203 9.95962L66.9523 13.5143C66.8179 14.4305 66.2866 14.8886 65.3582 14.8886Z" fill="white"/>
<path d="M79.4804 14.9619C78.6131 14.9619 77.9046 14.8031 77.3549 14.4855C76.8174 14.1679 76.4387 13.7342 76.2188 13.1845C75.999 12.6226 75.9501 11.9813 76.0723 11.2606L76.6219 7.83413H75.999C75.6569 7.83413 75.3882 7.76084 75.1927 7.61425C74.9973 7.45545 74.8996 7.23558 74.8996 6.95462C74.8996 6.57594 75.0217 6.28277 75.266 6.07511C75.5226 5.86744 75.8585 5.76361 76.2738 5.76361H76.9334L77.19 4.24279C77.2633 3.81525 77.4221 3.49764 77.6664 3.28998C77.9107 3.0701 78.2466 2.96016 78.6741 2.96016C79.1506 2.96016 79.4926 3.09453 79.7002 3.36327C79.9079 3.63201 79.9751 4.00458 79.9018 4.48099L79.7002 5.76361H81.276C81.6303 5.76361 81.9051 5.8369 82.1006 5.98349C82.296 6.13008 82.3938 6.34385 82.3938 6.6248C82.3938 6.96684 82.2777 7.2539 82.0456 7.48599C81.8257 7.71809 81.5204 7.83413 81.1295 7.83413H79.3888L78.8574 11.114C78.7597 11.6881 78.8268 12.0973 79.0589 12.3416C79.291 12.5859 79.6147 12.7081 80.0301 12.7081C80.2377 12.7081 80.4026 12.6959 80.5248 12.6715C80.6469 12.6348 80.7752 12.6165 80.9096 12.6165C81.105 12.6165 81.2455 12.6715 81.331 12.7814C81.4287 12.8791 81.4776 13.0746 81.4776 13.3677C81.4776 13.8808 81.3921 14.235 81.2211 14.4305C81.0623 14.6259 80.8424 14.7542 80.5614 14.8153C80.4026 14.8641 80.2255 14.9008 80.0301 14.9252C79.8346 14.9496 79.6514 14.9619 79.4804 14.9619Z" fill="white"/>
<path d="M85.4042 14.9619C84.8423 14.9619 84.3292 14.8336 83.8651 14.5771C83.4131 14.3083 83.0466 13.9602 82.7657 13.5326C82.4969 13.1051 82.3625 12.6409 82.3625 12.1401C82.3625 11.5049 82.5397 10.9857 82.8939 10.5826C83.2482 10.1795 83.7979 9.88633 84.543 9.7031C85.2882 9.50765 86.241 9.40993 87.4014 9.40993H88.849L88.6291 10.8391H87.4564C86.8578 10.8391 86.3814 10.8758 86.0272 10.9491C85.6729 11.0102 85.4164 11.1262 85.2576 11.2972C85.0988 11.456 85.0194 11.6759 85.0194 11.9569C85.0194 12.3233 85.1416 12.6104 85.3859 12.818C85.6424 13.0135 85.96 13.1112 86.3387 13.1112C86.6929 13.1112 87.0044 13.0379 87.2732 12.8913C87.5541 12.7447 87.7862 12.5371 87.9695 12.2683C88.1649 11.9996 88.2871 11.682 88.3359 11.3155L88.6841 9.17173C88.7696 8.67089 88.6779 8.28611 88.4092 8.01736C88.1527 7.74862 87.7129 7.61425 87.0899 7.61425C86.7113 7.61425 86.3387 7.6509 85.9722 7.72419C85.618 7.79749 85.2454 7.91964 84.8545 8.09066C84.5736 8.18838 84.3292 8.2067 84.1216 8.14563C83.9139 8.08455 83.7429 7.97461 83.6085 7.81581C83.4864 7.65701 83.4253 7.47378 83.4253 7.26611C83.4375 7.04624 83.5169 6.83857 83.6635 6.64313C83.8101 6.44768 84.0483 6.28277 84.3781 6.1484C84.9034 5.94074 85.4286 5.79415 85.9539 5.70864C86.4792 5.62313 86.9861 5.58038 87.4747 5.58038C88.5008 5.58038 89.307 5.76972 89.8934 6.1484C90.4797 6.52708 90.8767 7.04013 91.0844 7.68755C91.2921 8.32275 91.3287 9.03736 91.1943 9.83136L90.608 13.551C90.5469 14.0029 90.3881 14.345 90.1316 14.5771C89.8751 14.8092 89.5391 14.9252 89.1238 14.9252C88.7207 14.9252 88.4214 14.7969 88.226 14.5404C88.0305 14.2839 87.9756 13.9052 88.0611 13.4044L88.2077 12.4333L88.2993 12.928C88.116 13.3922 87.8717 13.777 87.5663 14.0823C87.2732 14.3877 86.9434 14.6137 86.5769 14.7603C86.2104 14.8947 85.8195 14.9619 85.4042 14.9619Z" fill="white"/>
<path d="M93.8813 14.9252C93.4415 14.9252 93.1239 14.7847 92.9285 14.5038C92.733 14.2106 92.6719 13.8136 92.7452 13.3128L94.376 3.03346C94.4371 2.58148 94.602 2.24556 94.8707 2.02568C95.1394 1.79359 95.5059 1.67754 95.9701 1.67754C96.3976 1.67754 96.7091 1.82412 96.9046 2.1173C97.1 2.39825 97.1611 2.79525 97.0878 3.3083L96.1167 9.48322H96.1533L99.3049 6.44157C99.5859 6.1484 99.8363 5.94074 100.056 5.81858C100.288 5.68421 100.569 5.61703 100.899 5.61703C101.278 5.61703 101.553 5.72086 101.724 5.92852C101.895 6.12397 101.962 6.37438 101.925 6.67977C101.901 6.97294 101.76 7.2539 101.504 7.52264L98.3521 10.6193L98.3155 9.53819L100.862 12.983C101.082 13.3006 101.18 13.6059 101.156 13.8991C101.131 14.1923 101.015 14.4366 100.807 14.632C100.6 14.8275 100.319 14.9252 99.9646 14.9252C99.5614 14.9252 99.2438 14.8458 99.0117 14.687C98.7919 14.516 98.5537 14.2473 98.2971 13.8808L95.9518 10.7475H95.9151L95.4754 13.5693C95.3288 14.4732 94.7974 14.9252 93.8813 14.9252Z" fill="white"/>
<path d="M107.455 14.9619C106.515 14.9619 105.696 14.7908 105 14.4488C104.304 14.0946 103.766 13.6059 103.387 12.983C103.009 12.36 102.819 11.6392 102.819 10.8208C102.819 9.79471 103.039 8.89077 103.479 8.10898C103.919 7.32719 104.517 6.71031 105.275 6.25834C106.044 5.80637 106.912 5.58038 107.877 5.58038C108.634 5.58038 109.275 5.70864 109.801 5.96517C110.326 6.22169 110.741 6.56983 111.047 7.00959C111.352 7.43713 111.553 7.93186 111.651 8.49377C111.761 9.04346 111.786 9.61148 111.724 10.1978C111.688 10.4788 111.608 10.662 111.486 10.7475C111.364 10.8208 111.199 10.8575 110.992 10.8575H105.055L105.256 9.42825H109.856L109.562 9.68478C109.623 9.24502 109.605 8.86023 109.507 8.53041C109.41 8.18838 109.226 7.91964 108.958 7.72419C108.689 7.51653 108.322 7.4127 107.858 7.4127C107.394 7.4127 106.997 7.52264 106.667 7.74252C106.35 7.95018 106.099 8.22503 105.916 8.56706C105.733 8.89688 105.605 9.26334 105.531 9.66645L105.44 10.3078C105.305 11.114 105.44 11.7492 105.843 12.2134C106.258 12.6653 106.887 12.8913 107.73 12.8913C108.048 12.8913 108.39 12.8547 108.756 12.7814C109.135 12.7081 109.471 12.5982 109.764 12.4516C110.033 12.3172 110.265 12.2745 110.46 12.3233C110.668 12.36 110.827 12.4577 110.937 12.6165C111.047 12.7753 111.101 12.9585 111.101 13.1662C111.114 13.3616 111.059 13.5632 110.937 13.7708C110.827 13.9663 110.65 14.1312 110.405 14.2656C109.978 14.4977 109.495 14.6687 108.958 14.7786C108.42 14.9008 107.919 14.9619 107.455 14.9619Z" fill="white"/>
<path d="M47.0515 38.4177C45.4554 38.4177 44.0547 38.1245 42.8494 37.5382C41.6442 36.9518 40.7076 36.0886 40.0399 34.9485C39.3721 33.8084 39.0382 32.4158 39.0382 30.7708C39.0382 29.3049 39.2499 27.9612 39.6734 26.7397C40.0969 25.5181 40.7158 24.4595 41.5301 23.5637C42.3608 22.6516 43.3625 21.9512 44.5351 21.4626C45.7078 20.9577 47.0515 20.7053 48.5662 20.7053C49.5435 20.7053 50.4637 20.8193 51.3269 21.0473C52.1902 21.2753 52.9475 21.6011 53.599 22.0245C53.9248 22.2363 54.1365 22.4887 54.2342 22.7819C54.332 23.0751 54.3401 23.3682 54.2587 23.6614C54.1935 23.9383 54.0632 24.1826 53.8678 24.3943C53.6723 24.5898 53.4361 24.7119 53.1593 24.7608C52.8824 24.8097 52.5811 24.7282 52.2553 24.5165C51.7016 24.1419 51.0989 23.8731 50.4474 23.7103C49.7959 23.5311 49.1119 23.4415 48.3952 23.4415C47.1085 23.4415 46.0091 23.7591 45.0971 24.3943C44.2013 25.0132 43.509 25.8683 43.0204 26.9596C42.5481 28.0345 42.3119 29.2642 42.3119 30.6486C42.3119 32.3751 42.7598 33.6536 43.6556 34.4843C44.5514 35.315 45.83 35.7303 47.4913 35.7303C48.1428 35.7303 48.7698 35.6733 49.3725 35.5593C49.9751 35.429 50.5614 35.2661 51.1315 35.0706L50.3253 36.3899L51.1804 31.1861H48.5174C48.1102 31.1861 47.7845 31.0965 47.5402 30.9174C47.3121 30.7382 47.1981 30.4939 47.1981 30.1845C47.1981 29.761 47.3284 29.4352 47.589 29.2072C47.8496 28.9792 48.2079 28.8652 48.664 28.8652H52.6462C53.1185 28.8652 53.4687 28.9955 53.6967 29.2561C53.9248 29.5167 53.9981 29.8831 53.9166 30.3555L52.9882 36.2189C52.9231 36.5935 52.8009 36.903 52.6218 37.1473C52.4426 37.3753 52.1739 37.5545 51.8156 37.6847C51.1478 37.9128 50.3904 38.0919 49.5435 38.2222C48.6965 38.3525 47.8659 38.4177 47.0515 38.4177Z" fill="white"/>
<path d="M60.2278 38.4177C59.3809 38.4177 58.6561 38.2385 58.0535 37.8802C57.4508 37.5219 57.0192 36.9681 56.7586 36.2189C56.5143 35.4697 56.4817 34.5169 56.6609 33.3605L57.6137 27.4482C57.6951 26.9596 57.8743 26.6013 58.1512 26.3732C58.4281 26.1452 58.8027 26.0312 59.275 26.0312C59.7799 26.0312 60.1464 26.1778 60.3744 26.471C60.6187 26.7478 60.7001 27.1632 60.6187 27.7169L59.7392 33.336C59.6089 34.2318 59.674 34.8996 59.9346 35.3394C60.2115 35.7791 60.7164 35.999 61.4494 35.999C62.3615 35.999 63.1025 35.6977 63.6726 35.0951C64.2426 34.4924 64.6091 33.6699 64.772 32.6275L65.5782 27.4482C65.6596 26.9596 65.8388 26.6013 66.1157 26.3732C66.3926 26.1452 66.7672 26.0312 67.2395 26.0312C67.7607 26.0312 68.1353 26.1778 68.3633 26.471C68.5913 26.7641 68.6646 27.1876 68.5832 27.7414L67.1418 36.9274C66.9952 37.8883 66.4414 38.3688 65.4805 38.3688C65.0081 38.3688 64.658 38.2385 64.4299 37.9779C64.2019 37.7173 64.1205 37.3183 64.1856 36.7808L64.4299 35.0218L64.601 35.6814C64.1775 36.5772 63.583 37.2613 62.8175 37.7336C62.0683 38.1897 61.2051 38.4177 60.2278 38.4177Z" fill="white"/>
<path d="M74.1804 38.4177C73.4474 38.4177 72.7797 38.2548 72.177 37.9291C71.5744 37.587 71.0858 37.1391 70.7112 36.5854C70.3528 36.0316 70.1737 35.4127 70.1737 34.7286C70.1737 33.8817 70.4099 33.1976 70.8822 32.6764C71.3545 32.1389 72.0874 31.7399 73.081 31.4793C74.0745 31.2187 75.3449 31.0884 76.8922 31.0884H78.8467L78.5779 32.8474H77.0388C76.0778 32.8474 75.3123 32.8963 74.7423 32.994C74.1722 33.0917 73.765 33.2628 73.5207 33.5071C73.2764 33.7514 73.1543 34.0934 73.1543 34.5332C73.1543 35.1032 73.3416 35.543 73.7162 35.8524C74.1071 36.1619 74.5794 36.3166 75.1332 36.3166C75.6544 36.3166 76.1267 36.2108 76.5502 35.999C76.9736 35.771 77.3319 35.4534 77.6251 35.0462C77.9183 34.6227 78.1056 34.126 78.187 33.5559L78.6512 30.6486C78.7815 29.8831 78.6594 29.2968 78.2848 28.8896C77.9264 28.4824 77.2912 28.2788 76.3791 28.2788C75.8417 28.2788 75.3205 28.3358 74.8156 28.4499C74.3107 28.5476 73.7895 28.7186 73.252 28.9629C72.9425 29.0932 72.6656 29.1339 72.4213 29.0851C72.177 29.0362 71.9734 28.9303 71.8106 28.7675C71.664 28.5883 71.5825 28.3847 71.5663 28.1567C71.55 27.9124 71.6151 27.6762 71.7617 27.4482C71.9246 27.2202 72.1852 27.0247 72.5435 26.8618C73.2276 26.5524 73.9361 26.3325 74.669 26.2022C75.4182 26.0556 76.1185 25.9823 76.77 25.9823C78.0567 25.9823 79.0665 26.2185 79.7995 26.6908C80.5324 27.1632 81.0292 27.8065 81.2898 28.6209C81.5504 29.4352 81.5992 30.3636 81.4363 31.406L80.5813 36.8541C80.5161 37.359 80.337 37.7418 80.0438 38.0023C79.7669 38.2467 79.3923 38.3688 78.92 38.3688C78.4802 38.3688 78.1463 38.2304 77.9183 37.9535C77.7066 37.6603 77.6414 37.2369 77.7228 36.6831L77.9671 35.1439L78.1382 35.6326C77.9101 36.2678 77.5844 36.7971 77.1609 37.2206C76.7537 37.6277 76.2896 37.9291 75.7684 38.1245C75.2635 38.32 74.7341 38.4177 74.1804 38.4177Z" fill="white"/>
<path d="M84.9758 38.3688C84.4872 38.3688 84.1288 38.2222 83.9008 37.9291C83.6891 37.6196 83.6239 37.188 83.7054 36.6342L85.1468 27.4971C85.2282 27.0084 85.4155 26.642 85.7087 26.3977C86.0019 26.1534 86.3846 26.0312 86.857 26.0312C87.3293 26.0312 87.6713 26.1778 87.8831 26.471C88.1111 26.7641 88.1844 27.1876 88.1029 27.7414L87.8831 29.1095H87.6387C87.9645 28.1485 88.502 27.4075 89.2512 26.8863C90.0004 26.3488 90.8881 26.0475 91.9142 25.9823C92.3702 25.9498 92.6715 26.0149 92.8181 26.1778C92.981 26.3407 93.0624 26.6094 93.0624 26.984C93.0624 27.5215 92.9403 27.9205 92.6959 28.1811C92.4516 28.4254 92.0689 28.572 91.5477 28.6209L90.8392 28.6942C89.7479 28.8082 88.9662 29.1421 88.4938 29.6958C88.0215 30.2333 87.7039 30.9907 87.541 31.9679L86.7592 36.903C86.6941 37.3916 86.5068 37.758 86.1973 38.0023C85.9041 38.2467 85.497 38.3688 84.9758 38.3688Z" fill="white"/>
<path d="M97.577 38.4177C96.6812 38.4177 95.8912 38.2059 95.2072 37.7825C94.5394 37.359 94.0182 36.7645 93.6436 35.999C93.269 35.2172 93.0817 34.3051 93.0817 33.2628C93.0817 31.8946 93.3179 30.6649 93.7902 29.5737C94.2788 28.4661 94.971 27.5948 95.8668 26.9596C96.7789 26.3081 97.8539 25.9823 99.0917 25.9823C100.004 25.9823 100.81 26.2022 101.51 26.642C102.211 27.0817 102.699 27.7332 102.976 28.5964L102.805 28.572L103.807 22.1955C103.888 21.6906 104.076 21.3242 104.369 21.0961C104.662 20.8681 105.061 20.7541 105.566 20.7541C106.038 20.7541 106.38 20.9007 106.592 21.1939C106.82 21.487 106.893 21.9187 106.812 22.4887L104.54 36.8052C104.458 37.3101 104.271 37.701 103.978 37.9779C103.685 38.2385 103.286 38.3688 102.781 38.3688C102.308 38.3688 101.966 38.2059 101.755 37.8802C101.559 37.5382 101.51 37.0903 101.608 36.5365L101.828 35.1928L101.852 35.9257C101.413 36.6912 100.826 37.302 100.093 37.758C99.3604 38.1978 98.5216 38.4177 97.577 38.4177ZM98.7741 36.0967C99.5233 36.0967 100.15 35.885 100.655 35.4615C101.176 35.0218 101.576 34.4436 101.852 33.7269C102.129 32.994 102.268 32.1796 102.268 31.2838C102.268 30.3229 102.032 29.59 101.559 29.0851C101.103 28.5639 100.468 28.3033 99.6536 28.3033C98.9207 28.3033 98.2936 28.515 97.7724 28.9385C97.2512 29.3619 96.8522 29.9401 96.5753 30.6731C96.2984 31.3897 96.16 32.2041 96.16 33.1162C96.16 34.0771 96.388 34.8182 96.844 35.3394C97.3164 35.8443 97.9597 36.0967 98.7741 36.0967Z" fill="white"/>
<path d="M108.977 38.3688C108.504 38.3688 108.154 38.2141 107.926 37.9046C107.714 37.5789 107.649 37.1391 107.731 36.5854L109.172 27.5459C109.254 27.041 109.441 26.6664 109.734 26.4221C110.027 26.1615 110.426 26.0312 110.931 26.0312C111.403 26.0312 111.746 26.1859 111.957 26.4954C112.185 26.8048 112.259 27.2446 112.177 27.8147L110.736 36.8541C110.654 37.359 110.467 37.7418 110.174 38.0023C109.897 38.2467 109.498 38.3688 108.977 38.3688ZM111.322 23.7836C110.768 23.7836 110.353 23.6533 110.076 23.3927C109.815 23.1158 109.71 22.733 109.758 22.2444C109.824 21.6906 110.035 21.2753 110.394 20.9984C110.752 20.7053 111.232 20.5587 111.835 20.5587C112.389 20.5587 112.804 20.6971 113.081 20.974C113.358 21.2346 113.464 21.6092 113.399 22.0978C113.334 22.6516 113.122 23.0751 112.763 23.3682C112.421 23.6451 111.941 23.7836 111.322 23.7836Z" fill="white"/>
<path d="M117.793 38.4177C117.06 38.4177 116.393 38.2548 115.79 37.9291C115.187 37.587 114.699 37.1391 114.324 36.5854C113.966 36.0316 113.787 35.4127 113.787 34.7286C113.787 33.8817 114.023 33.1976 114.495 32.6764C114.968 32.1389 115.7 31.7399 116.694 31.4793C117.688 31.2187 118.958 31.0884 120.505 31.0884H122.46L122.191 32.8474H120.652C119.691 32.8474 118.925 32.8963 118.355 32.994C117.785 33.0917 117.378 33.2628 117.134 33.5071C116.889 33.7514 116.767 34.0934 116.767 34.5332C116.767 35.1032 116.955 35.543 117.329 35.8524C117.72 36.1619 118.192 36.3166 118.746 36.3166C119.267 36.3166 119.74 36.2108 120.163 35.999C120.587 35.771 120.945 35.4534 121.238 35.0462C121.531 34.6227 121.719 34.126 121.8 33.5559L122.264 30.6486C122.395 29.8831 122.272 29.2968 121.898 28.8896C121.539 28.4824 120.904 28.2788 119.992 28.2788C119.455 28.2788 118.933 28.3358 118.429 28.4499C117.924 28.5476 117.402 28.7186 116.865 28.9629C116.556 29.0932 116.279 29.1339 116.034 29.0851C115.79 29.0362 115.586 28.9303 115.424 28.7675C115.277 28.5883 115.196 28.3847 115.179 28.1567C115.163 27.9124 115.228 27.6762 115.375 27.4482C115.538 27.2202 115.798 27.0247 116.157 26.8618C116.841 26.5524 117.549 26.3325 118.282 26.2022C119.031 26.0556 119.732 25.9823 120.383 25.9823C121.67 25.9823 122.68 26.2185 123.412 26.6908C124.145 27.1632 124.642 27.8065 124.903 28.6209C125.163 29.4352 125.212 30.3636 125.049 31.406L124.194 36.8541C124.129 37.359 123.95 37.7418 123.657 38.0023C123.38 38.2467 123.005 38.3688 122.533 38.3688C122.093 38.3688 121.759 38.2304 121.531 37.9535C121.32 37.6603 121.254 37.2369 121.336 36.6831L121.58 35.1439L121.751 35.6326C121.523 36.2678 121.197 36.7971 120.774 37.2206C120.367 37.6277 119.903 37.9291 119.381 38.1245C118.876 38.32 118.347 38.4177 117.793 38.4177Z" fill="white"/>
<path d="M128.589 38.3444C128.116 38.3444 127.766 38.1897 127.538 37.8802C127.327 37.5545 127.261 37.1147 127.343 36.5609L128.76 27.5459C128.841 27.041 129.029 26.6664 129.322 26.4221C129.631 26.1615 130.03 26.0312 130.519 26.0312C130.975 26.0312 131.309 26.1696 131.521 26.4465C131.732 26.7234 131.797 27.1387 131.716 27.6925L131.472 29.2561L131.374 28.6453C131.781 27.7821 132.359 27.1224 133.109 26.6664C133.874 26.2104 134.77 25.9823 135.796 25.9823C136.675 25.9823 137.408 26.1615 137.995 26.5198C138.597 26.8781 139.021 27.4319 139.265 28.1811C139.526 28.914 139.566 29.8587 139.387 31.0151L138.483 36.8297C138.418 37.3346 138.231 37.7173 137.921 37.9779C137.628 38.2222 137.229 38.3444 136.724 38.3444C136.252 38.3444 135.902 38.1897 135.674 37.8802C135.446 37.5545 135.372 37.1147 135.454 36.5609L136.333 31.064C136.48 30.1682 136.407 29.5004 136.114 29.0606C135.837 28.6046 135.324 28.3766 134.574 28.3766C133.613 28.3766 132.84 28.6779 132.253 29.2805C131.683 29.8831 131.317 30.7057 131.154 31.748L130.348 36.8297C130.201 37.8395 129.615 38.3444 128.589 38.3444Z" fill="white"/>
</svg>
