<svg width="18" height="11" viewBox="0 0 18 11" fill="none" xmlns="http://www.w3.org/2000/svg">
<path d="M0.5 0.5V10.5V0.5Z" fill="#D7FFDA"/>
<path d="M0.5 0.5V10.5" stroke="#4D8445" stroke-linecap="round" stroke-linejoin="round"/>
<path d="M17.1665 7.58325V10.4999V7.58325Z" fill="#D7FFDA"/>
<path d="M17.1665 7.58325V10.4999" stroke="#4D8445" stroke-linecap="round" stroke-linejoin="round"/>
<path d="M17.1667 7.58325H0.5H17.1667Z" fill="#D7FFDA"/>
<path d="M17.1667 7.58325H0.5" stroke="#4D8445" stroke-linecap="round" stroke-linejoin="round"/>
<path d="M8 2.16675V7.58342H17.1667V3.41675C17.1667 2.72637 16.607 2.16675 15.9167 2.16675H8Z" fill="#D7FFDA" stroke="#4D8445" stroke-linecap="round" stroke-linejoin="round"/>
<path d="M4.25 5.08325C4.94036 5.08325 5.5 4.52361 5.5 3.83325C5.5 3.1429 4.94036 2.58325 4.25 2.58325C3.55964 2.58325 3 3.1429 3 3.83325C3 4.52361 3.55964 5.08325 4.25 5.08325Z" fill="#D7FFDA" stroke="#4D8445"/>
</svg>
