<svg width="14" height="14" viewBox="0 0 14 14" fill="none" xmlns="http://www.w3.org/2000/svg">
<path d="M3.5 0H10.5C11.428 0.000992641 12.3176 0.37006 12.9738 1.02622C13.6299 1.68238 13.999 2.57205 14 3.5V10.5C13.999 11.428 13.6299 12.3176 12.9738 12.9738C12.3176 13.6299 11.428 13.999 10.5 14H3.5C2.57205 13.999 1.68238 13.6299 1.02622 12.9738C0.37006 12.3176 0.000992775 11.428 0 10.5V3.5C0.000992775 2.57205 0.37006 1.68238 1.02622 1.02622C1.68238 0.37006 2.57205 0.000992641 3.5 0ZM2.36844 5.5625L3.40969 6.78781C3.53207 6.93295 3.68464 7.04963 3.85676 7.12973C4.02888 7.20982 4.21641 7.2514 4.40625 7.25156C4.65247 7.25128 4.89373 7.18222 5.10281 7.05219C5.54719 6.77781 6.23719 6.45062 6.99938 6.45062C7.76156 6.45062 8.45156 6.77781 8.89594 7.05219C9.1628 7.21937 9.48102 7.28467 9.79215 7.23611C10.1033 7.18754 10.3865 7.02837 10.5897 6.78781L11.6316 5.5625C11.8988 5.25031 12.0337 4.84615 12.0075 4.43603C11.9813 4.02591 11.7961 3.6422 11.4913 3.36656C10.6213 2.57437 9.13594 1.63 7 1.63C4.86406 1.63 3.37875 2.57437 2.50875 3.36656C2.20393 3.6422 2.01872 4.02591 1.99251 4.43603C1.96631 4.84615 2.10118 5.25031 2.36844 5.5625Z" fill="#776917"/>
</svg>
